<?xml version="1.0" standalone="no"?><svg xmlns="http://www.w3.org/2000/svg" viewBox="0 0 1440 320"><path fill="#0099ff" fill-opacity="1" d="M0,32L12.6,32C25.3,32,51,32,76,48C101.1,64,126,96,152,122.7C176.8,149,202,171,227,181.3C252.6,192,278,192,303,202.7C328.4,213,354,235,379,240C404.2,245,429,235,455,218.7C480,203,505,181,531,170.7C555.8,160,581,160,606,181.3C631.6,203,657,245,682,256C707.4,267,733,245,758,208C783.2,171,808,117,834,96C858.9,75,884,85,909,85.3C934.7,85,960,75,985,90.7C1010.5,107,1036,149,1061,149.3C1086.3,149,1112,107,1137,96C1162.1,85,1187,107,1213,133.3C1237.9,160,1263,192,1288,202.7C1313.7,213,1339,203,1364,181.3C1389.5,160,1415,128,1427,112L1440,96L1440,320L1427.4,320C1414.7,320,1389,320,1364,320C1338.9,320,1314,320,1288,320C1263.2,320,1238,320,1213,320C1187.4,320,1162,320,1137,320C1111.6,320,1086,320,1061,320C1035.8,320,1011,320,985,320C960,320,935,320,909,320C884.2,320,859,320,834,320C808.4,320,783,320,758,320C732.6,320,707,320,682,320C656.8,320,632,320,606,320C581.1,320,556,320,531,320C505.3,320,480,320,455,320C429.5,320,404,320,379,320C353.7,320,328,320,303,320C277.9,320,253,320,227,320C202.1,320,177,320,152,320C126.3,320,101,320,76,320C50.5,320,25,320,13,320L0,320Z"></path></svg>